<svg height="4000" version="1.1" width="4000" xmlns="http://www.w3.org/2000/svg" xmlns:xlink="http://www.w3.org/1999/xlink" style="overflow: hidden; position: relative;"><image x="55.0078125" y="-23.5" width="40" height="40" preserveAspectRatio="none" xlink:href="img/edit2.png" opacity="0" style="-webkit-tap-highlight-color: rgba(0, 0, 0, 0); opacity: 0;" transform="matrix(1,0,0,1,972,298)"></image><image x="-95.0078125" y="-23.5" width="40" height="40" preserveAspectRatio="none" xlink:href="img/iconoBorrar2.png" opacity="0" style="-webkit-tap-highlight-color: rgba(0, 0, 0, 0); opacity: 0;" transform="matrix(1,0,0,1,972,298)"></image><image x="107.5234375" y="-23.5" width="40" height="40" preserveAspectRatio="none" xlink:href="img/edit.png" opacity="0" style="-webkit-tap-highlight-color: rgba(0, 0, 0, 0); opacity: 0;" transform="matrix(1,0,0,1,590,560)"></image><image x="-147.5234375" y="-23.5" width="40" height="40" preserveAspectRatio="none" xlink:href="img/iconoBorrar.png" opacity="0" style="-webkit-tap-highlight-color: rgba(0, 0, 0, 0); opacity: 0;" transform="matrix(1,0,0,1,590,560)"></image><image x="-64.49703979492188" y="-0.6309127807617188" width="40" height="40" preserveAspectRatio="none" xlink:href="img/edit2.png" opacity="0" style="-webkit-tap-highlight-color: rgba(0, 0, 0, 0); opacity: 0;" transform="matrix(1,0,0,1,263,282)"></image><image x="-84.1796875" y="-23.5" width="40" height="40" preserveAspectRatio="none" xlink:href="img/iconoBorrar.png" opacity="0" style="-webkit-tap-highlight-color: rgba(0, 0, 0, 0); opacity: 0;" transform="matrix(1,0,0,1,263,282)"></image><image x="44.45685577392578" y="54.29279327392578" width="40" height="40" preserveAspectRatio="none" xlink:href="img/iconoBorrar.png" opacity="0" style="-webkit-tap-highlight-color: rgba(0, 0, 0, 0); opacity: 0;" transform="matrix(1,0,0,1,972,298)"></image><path fill="none" stroke="#596f53" d="M590,560L972,298" stroke-width="3" style="-webkit-tap-highlight-color: rgba(0, 0, 0, 0);"></path><path fill="none" stroke="#596f53" d="M590,560L263,282" stroke-width="3" style="-webkit-tap-highlight-color: rgba(0, 0, 0, 0);"></path><path fill="none" stroke="#596f53" d="M894.2072067260742,220.20720672607422L972,298" stroke-width="1" style="-webkit-tap-highlight-color: rgba(0, 0, 0, 0);"></path><path fill="none" stroke="#596f53" d="M1049.7927932739258,375.7927932739258L972,298" stroke-width="1" style="-webkit-tap-highlight-color: rgba(0, 0, 0, 0);"></path><path fill="none" stroke="#596f53" d="M177.65139770507812,304.8690891265869L263,282" stroke-width="1" style="-webkit-tap-highlight-color: rgba(0, 0, 0, 0);"></path><path fill="none" stroke="#596f53" d="M285.86909103393555,196.65139770507812L263,282" stroke-width="1" style="-webkit-tap-highlight-color: rgba(0, 0, 0, 0);"></path><path fill="none" stroke="#596f53" d="M325.4795150756836,344.4795150756836L263,282" stroke-width="1" style="-webkit-tap-highlight-color: rgba(0, 0, 0, 0);"></path><desc style="-webkit-tap-highlight-color: rgba(0, 0, 0, 0);">Created with Raphaël 2.1.2</desc><defs style="-webkit-tap-highlight-color: rgba(0, 0, 0, 0);"></defs><circle cx="0" cy="0" r="0" fill="none" stroke="#000" style="-webkit-tap-highlight-color: rgba(0, 0, 0, 0);"></circle><circle cx="-54.1796875" cy="-26.5" r="0" fill="none" stroke="#000" style="-webkit-tap-highlight-color: rgba(0, 0, 0, 0);"></circle><rect x="-54.1796875" y="-26.5" width="108.359375" height="53" rx="0" ry="0" fill="#eded97" stroke="#949590" stroke-width="3" style="-webkit-tap-highlight-color: rgba(0, 0, 0, 0); opacity: 1; stroke-opacity: 1;" opacity="1" transform="matrix(1,0,0,1,263,282)" stroke-opacity="1"></rect><text x="0" y="0" text-anchor="center" font-family="&quot;Arial&quot;" font-size="30px" stroke="none" fill="#202024" style="-webkit-tap-highlight-color: rgba(0, 0, 0, 0); text-anchor: middle; font-family: Arial; font-size: 30px; font-weight: bold; opacity: 1;" font-weight="bold" opacity="1" transform="matrix(1,0,0,1,263,282)"><tspan style="-webkit-tap-highlight-color: rgba(0, 0, 0, 0);" dy="10.5">books</tspan></text><circle cx="62.47951324390509" cy="62.4795132439051" r="0" fill="none" stroke="#000" style="-webkit-tap-highlight-color: rgba(0, 0, 0, 0);"></circle><circle cx="56.635765075683594" cy="70.9795150756836" r="0" fill="none" stroke="#000" style="-webkit-tap-highlight-color: rgba(0, 0, 0, 0);"></circle><circle cx="64.9795150756836" cy="64.9795150756836" r="0" fill="none" stroke="#000" style="-webkit-tap-highlight-color: rgba(0, 0, 0, 0);"></circle><ellipse cx="64.9795150756836" cy="64.9795150756836" rx="11.6875" ry="17" fill="#ffffff" stroke="#596f53" style="-webkit-tap-highlight-color: rgba(0, 0, 0, 0); opacity: 1;" stroke-width="1" opacity="1" transform="matrix(1,0,0,1,263,282)"></ellipse><text x="62.47951324390509" y="62.4795132439051" text-anchor="center" font-family="&quot;Arial&quot;" font-size="15px" stroke="none" fill="#202024" style="-webkit-tap-highlight-color: rgba(0, 0, 0, 0); text-anchor: middle; font-family: Arial; font-size: 15px; font-weight: normal; opacity: 1;" font-weight="normal" opacity="1" transform="matrix(1,0,0,1,263,282)"><tspan style="-webkit-tap-highlight-color: rgba(0, 0, 0, 0);" dy="5.499998168221509">id</tspan></text><path fill="none" stroke="#2a364e" d="M56.635765075683594,70.9795150756836L68.3232650756836,70.9795150756836" stroke-width="2" style="-webkit-tap-highlight-color: rgba(0, 0, 0, 0); opacity: 1;" opacity="1" transform="matrix(1,0,0,1,263,282)"></path><circle cx="62.479515075683594" cy="62.479515075683594" r="0" fill="none" stroke="#000" style="-webkit-tap-highlight-color: rgba(0, 0, 0, 0);"></circle><circle cx="22.869089063355567" cy="-85.34860230726063" r="0" fill="none" stroke="#000" style="-webkit-tap-highlight-color: rgba(0, 0, 0, 0);"></circle><image x="-23.802783966064453" y="-108.84860229492188" width="40" height="40" preserveAspectRatio="none" xlink:href="img/iconoBorrar.png" opacity="0" style="-webkit-tap-highlight-color: rgba(0, 0, 0, 0); opacity: 0;" transform="matrix(1,0,0,1,263,282)"></image><image x="29.540966033935547" y="-108.84860229492188" width="40" height="40" preserveAspectRatio="none" xlink:href="img/edit.png" opacity="0" style="-webkit-tap-highlight-color: rgba(0, 0, 0, 0); opacity: 0;" transform="matrix(1,0,0,1,263,282)"></image><circle cx="25.369091033935547" cy="-82.84860229492188" r="0" fill="none" stroke="#000" style="-webkit-tap-highlight-color: rgba(0, 0, 0, 0);"></circle><ellipse cx="25.369091033935547" cy="-82.84860229492188" rx="23.34375" ry="17" fill="#ffffff" stroke="#596f53" stroke-width="1" opacity="1" style="-webkit-tap-highlight-color: rgba(0, 0, 0, 0); opacity: 1;" transform="matrix(1,0,0,1,263,282)"></ellipse><text x="22.869089063355567" y="-85.34860230726063" text-anchor="center" font-family="&quot;Arial&quot;" font-size="15px" stroke="none" fill="#202024" style="-webkit-tap-highlight-color: rgba(0, 0, 0, 0); text-anchor: middle; font-family: Arial; font-size: 15px; font-weight: normal; opacity: 1;" font-weight="normal" opacity="1" transform="matrix(1,0,0,1,263,282)"><tspan style="-webkit-tap-highlight-color: rgba(0, 0, 0, 0);" dy="5.499999987661241">title</tspan></text><circle cx="22.869091033935547" cy="-85.34860229492188" r="0" fill="none" stroke="#000" style="-webkit-tap-highlight-color: rgba(0, 0, 0, 0);"></circle><circle cx="-85.34860230726063" cy="22.869089063355577" r="0" fill="none" stroke="#000" style="-webkit-tap-highlight-color: rgba(0, 0, 0, 0);"></circle><circle cx="-82.84860229492188" cy="25.369089126586914" r="0" fill="none" stroke="#000" style="-webkit-tap-highlight-color: rgba(0, 0, 0, 0);"></circle><ellipse cx="-82.84860229492188" cy="25.369089126586914" rx="38.375" ry="17" fill="#ffffff" stroke="#596f53" stroke-width="1" opacity="1" style="-webkit-tap-highlight-color: rgba(0, 0, 0, 0); opacity: 1;" transform="matrix(1,0,0,1,263,282)"></ellipse><text x="-85.34860230726063" y="22.869089063355577" text-anchor="center" font-family="&quot;Arial&quot;" font-size="15px" stroke="none" fill="#202024" style="-webkit-tap-highlight-color: rgba(0, 0, 0, 0); text-anchor: middle; font-family: Arial; font-size: 15px; font-weight: normal; opacity: 1;" font-weight="normal" opacity="1" transform="matrix(1,0,0,1,263,282)"><tspan style="-webkit-tap-highlight-color: rgba(0, 0, 0, 0);" dy="5.499999936768663">genre</tspan></text><circle cx="-85.34860229492188" cy="22.869089126586914" r="0" fill="none" stroke="#000" style="-webkit-tap-highlight-color: rgba(0, 0, 0, 0);"></circle><circle cx="0" cy="0" r="0" fill="none" stroke="#000" style="-webkit-tap-highlight-color: rgba(0, 0, 0, 0);"></circle><circle cx="-65.0078125" cy="-26.5" r="0" fill="none" stroke="#000" style="-webkit-tap-highlight-color: rgba(0, 0, 0, 0);"></circle><rect x="-65.0078125" y="-26.5" width="130.015625" height="53" rx="0" ry="0" fill="#eded97" stroke="#949590" stroke-width="3" style="-webkit-tap-highlight-color: rgba(0, 0, 0, 0); opacity: 1; stroke-opacity: 1;" opacity="1" transform="matrix(1,0,0,1,972,298)" stroke-opacity="1"></rect><text x="0" y="0" text-anchor="center" font-family="&quot;Arial&quot;" font-size="30px" stroke="none" fill="#202024" style="-webkit-tap-highlight-color: rgba(0, 0, 0, 0); text-anchor: middle; font-family: Arial; font-size: 30px; font-weight: bold; opacity: 1;" font-weight="bold" opacity="1" transform="matrix(1,0,0,1,972,298)"><tspan style="-webkit-tap-highlight-color: rgba(0, 0, 0, 0);" dy="10.5">authors</tspan></text><circle cx="77.79279447397626" cy="77.79279447397627" r="0" fill="none" stroke="#000" style="-webkit-tap-highlight-color: rgba(0, 0, 0, 0);"></circle><circle cx="71.94904327392578" cy="86.29279327392578" r="0" fill="none" stroke="#000" style="-webkit-tap-highlight-color: rgba(0, 0, 0, 0);"></circle><circle cx="80.29279327392578" cy="80.29279327392578" r="0" fill="none" stroke="#000" style="-webkit-tap-highlight-color: rgba(0, 0, 0, 0);"></circle><ellipse cx="80.29279327392578" cy="80.29279327392578" rx="11.6875" ry="17" fill="#ffffff" stroke="#596f53" stroke-width="1" opacity="1" style="-webkit-tap-highlight-color: rgba(0, 0, 0, 0); opacity: 1;" transform="matrix(1,0,0,1,972,298)"></ellipse><text x="77.79279447397626" y="77.79279447397627" text-anchor="center" font-family="&quot;Arial&quot;" font-size="15px" stroke="none" fill="#202024" style="-webkit-tap-highlight-color: rgba(0, 0, 0, 0); text-anchor: middle; font-family: Arial; font-size: 15px; font-weight: normal; opacity: 1;" font-weight="normal" opacity="1" transform="matrix(1,0,0,1,972,298)"><tspan style="-webkit-tap-highlight-color: rgba(0, 0, 0, 0);" dy="5.500001200050491">id</tspan></text><path fill="none" stroke="#2a364e" d="M71.94904327392578,86.29279327392578L83.63654327392578,86.29279327392578" stroke-width="2" opacity="1" style="-webkit-tap-highlight-color: rgba(0, 0, 0, 0); opacity: 1;" transform="matrix(1,0,0,1,972,298)"></path><circle cx="77.79279327392578" cy="77.79279327392578" r="0" fill="none" stroke="#000" style="-webkit-tap-highlight-color: rgba(0, 0, 0, 0);"></circle><circle cx="-77.79279447397626" cy="-77.79279447397629" r="0" fill="none" stroke="#000" style="-webkit-tap-highlight-color: rgba(0, 0, 0, 0);"></circle><circle cx="-75.29279327392578" cy="-75.29279327392578" r="0" fill="none" stroke="#000" style="-webkit-tap-highlight-color: rgba(0, 0, 0, 0);"></circle><ellipse cx="-75.29279327392578" cy="-75.29279327392578" rx="37.53125" ry="17" fill="#ffffff" stroke="#596f53" stroke-width="1" opacity="1" style="-webkit-tap-highlight-color: rgba(0, 0, 0, 0); opacity: 1;" transform="matrix(1,0,0,1,972,298)"></ellipse><text x="-77.79279447397626" y="-77.79279447397629" text-anchor="center" font-family="&quot;Arial&quot;" font-size="15px" stroke="none" fill="#202024" style="-webkit-tap-highlight-color: rgba(0, 0, 0, 0); text-anchor: middle; font-family: Arial; font-size: 15px; font-weight: normal; opacity: 1;" font-weight="normal" opacity="1" transform="matrix(1,0,0,1,972,298)"><tspan style="-webkit-tap-highlight-color: rgba(0, 0, 0, 0);" dy="5.499998799949495">name</tspan></text><circle cx="-77.79279327392578" cy="-77.79279327392578" r="0" fill="none" stroke="#000" style="-webkit-tap-highlight-color: rgba(0, 0, 0, 0);"></circle><image x="29.143577575683594" y="38.979515075683594" width="40" height="40" preserveAspectRatio="none" xlink:href="img/iconoBorrar2.png" opacity="1" style="-webkit-tap-highlight-color: rgba(0, 0, 0, 0); opacity: 1;" transform="matrix(1,0,0,1,263,282)"></image><image x="55.815452575683594" y="38.979515075683594" width="40" height="40" preserveAspectRatio="none" xlink:href="img/edit2.png" opacity="1" style="-webkit-tap-highlight-color: rgba(0, 0, 0, 0); opacity: 1;" transform="matrix(1,0,0,1,263,282)"></image><circle cx="0" cy="0" r="0" fill="none" stroke="#000" style="-webkit-tap-highlight-color: rgba(0, 0, 0, 0);"></circle><circle cx="0" cy="0" r="0" fill="none" stroke="#000" style="-webkit-tap-highlight-color: rgba(0, 0, 0, 0);"></circle><circle cx="0" cy="0" r="0" fill="none" stroke="#000" style="-webkit-tap-highlight-color: rgba(0, 0, 0, 0);"></circle><image x="-70.84375" y="-23.5" width="0" height="0" preserveAspectRatio="none" xlink:href="img/iconoBorrar.png" opacity="0" style="-webkit-tap-highlight-color: rgba(0, 0, 0, 0); opacity: 0;" transform="matrix(0.7619,0.6477,-0.6477,0.7619,371.421,422.0591)"></image><image x="10.84375" y="-23.5" width="40" height="40" preserveAspectRatio="none" xlink:href="img/edit.png" opacity="0" style="-webkit-tap-highlight-color: rgba(0, 0, 0, 0); opacity: 0;" transform="matrix(0.7619,0.6477,-0.6477,0.7619,408.589,360.9568)"></image><circle cx="-26.5625" cy="-17" r="0" fill="none" stroke="#000" style="-webkit-tap-highlight-color: rgba(0, 0, 0, 0);"></circle><rect x="-26.5625" y="-17" width="53.125" height="34" rx="0" ry="0" fill="none" stroke="none" stroke-width="0" style="-webkit-tap-highlight-color: rgba(0, 0, 0, 0);" transform="matrix(0.7619,0.6477,-0.6477,0.7619,403.5115,381.7682)"></rect><text x="0" y="0" text-anchor="center" font-family="&quot;Arial&quot;" font-size="20px" stroke="none" fill="#000000" style="-webkit-tap-highlight-color: rgba(0, 0, 0, 0); text-anchor: middle; font-family: Arial; font-size: 20px; font-weight: normal;" font-weight="normal" transform="matrix(0.7619,0.6477,-0.6477,0.7619,403.5115,381.7682)"><tspan style="-webkit-tap-highlight-color: rgba(0, 0, 0, 0);" dy="7">(1,1)</tspan></text><circle cx="0" cy="0" r="0" fill="none" stroke="#000" style="-webkit-tap-highlight-color: rgba(0, 0, 0, 0);"></circle><circle cx="0" cy="0" r="0" fill="none" stroke="#000" style="-webkit-tap-highlight-color: rgba(0, 0, 0, 0);"></circle><image x="-71.6640625" y="-23.5" width="0" height="0" preserveAspectRatio="none" xlink:href="img/iconoBorrar.png" opacity="0" style="-webkit-tap-highlight-color: rgba(0, 0, 0, 0); opacity: 0;" transform="matrix(0.8247,-0.5656,0.5656,0.8247,811.4478,345.7723)"></image><circle cx="-26.5625" cy="-17" r="0" fill="none" stroke="#000" style="-webkit-tap-highlight-color: rgba(0, 0, 0, 0);"></circle><rect x="-26.5625" y="-17" width="53.125" height="34" rx="0" ry="0" fill="none" stroke="none" stroke-width="0" style="-webkit-tap-highlight-color: rgba(0, 0, 0, 0);" transform="matrix(0.8247,-0.5656,0.5656,0.8247,810.7207,390.4266)"></rect><text x="0" y="0" text-anchor="center" font-family="&quot;Arial&quot;" font-size="20px" stroke="none" fill="#000000" style="-webkit-tap-highlight-color: rgba(0, 0, 0, 0); text-anchor: middle; font-family: Arial; font-size: 20px; font-weight: normal;" font-weight="normal" transform="matrix(0.8247,-0.5656,0.5656,0.8247,810.7207,390.4266)"><tspan style="-webkit-tap-highlight-color: rgba(0, 0, 0, 0);" dy="7">(1,n)</tspan></text><circle cx="-107.5234375" cy="-16.5" r="0" fill="none" stroke="#000" style="-webkit-tap-highlight-color: rgba(0, 0, 0, 0);"></circle><path fill="#a4d698" stroke="#949590" d="M-179.20572916666669,0L0,-44L179.20572916666669,0L0,44Z" stroke-width="3" opacity="1" style="-webkit-tap-highlight-color: rgba(0, 0, 0, 0); opacity: 1; stroke-opacity: 1;" transform="matrix(1,0,0,1,590,560)" stroke-opacity="1"></path><text x="0" y="0" text-anchor="center" font-family="&quot;Arial&quot;" font-size="30px" stroke="none" fill="#202024" style="-webkit-tap-highlight-color: rgba(0, 0, 0, 0); text-anchor: middle; font-family: Arial; font-size: 30px; font-weight: bold; opacity: 1;" font-weight="bold" opacity="1" transform="matrix(1,0,0,1,590,560)"><tspan style="-webkit-tap-highlight-color: rgba(0, 0, 0, 0);" dy="10.5">authors_books</tspan></text><image x="11.6640625" y="-23.5" width="40" height="40" preserveAspectRatio="none" xlink:href="img/edit2.png" opacity="1" style="-webkit-tap-highlight-color: rgba(0, 0, 0, 0); opacity: 1;" transform="matrix(0.8247,-0.5656,0.5656,0.8247,818.252,407.7225)"></image><image x="71.12873077392578" y="54.29279327392578" width="40" height="40" preserveAspectRatio="none" xlink:href="img/edit2.png" opacity="1" style="-webkit-tap-highlight-color: rgba(0, 0, 0, 0); opacity: 1;" transform="matrix(1,0,0,1,972,298)"></image><image x="44.1796875" y="-23.5" width="40" height="40" preserveAspectRatio="none" xlink:href="img/edit2.png" opacity="1" style="-webkit-tap-highlight-color: rgba(0, 0, 0, 0); opacity: 1;" transform="matrix(1,0,0,1,263,282)"></image><image x="-136.98029327392578" y="-101.29279327392578" width="40" height="40" preserveAspectRatio="none" xlink:href="img/iconoBorrar2.png" opacity="1" style="-webkit-tap-highlight-color: rgba(0, 0, 0, 0); opacity: 1;" transform="matrix(1,0,0,1,972,298)"></image><image x="-146.20016479492188" y="-0.6309127807617188" width="40" height="40" preserveAspectRatio="none" xlink:href="img/iconoBorrar2.png" opacity="1" style="-webkit-tap-highlight-color: rgba(0, 0, 0, 0); opacity: 1;" transform="matrix(1,0,0,1,263,282)"></image><image x="-58.60529327392578" y="-101.29279327392578" width="40" height="40" preserveAspectRatio="none" xlink:href="img/edit2.png" opacity="1" style="-webkit-tap-highlight-color: rgba(0, 0, 0, 0); opacity: 1;" transform="matrix(1,0,0,1,972,298)"></image></svg>
